<svg width="1700" height="41" viewBox="0 0 1700 41" fill="none" xmlns="http://www.w3.org/2000/svg">
<path d="M927.207 3.69434L868.363 62.5387L864.766 58.942L923.611 0.0976281L927.207 3.69434Z" fill="#1C1C1D"/>
<path d="M1160 3.69434L1101.16 62.5387L1097.56 58.942L1156.4 0.0976281L1160 3.69434Z" fill="#1C1C1D"/>
<path d="M727.671 3.69434L668.827 62.5387L665.23 58.942L724.074 0.0976281L727.671 3.69434Z" fill="#1C1C1D"/>
<path d="M960.463 3.69434L901.619 62.5387L898.022 58.942L956.867 0.0976281L960.463 3.69434Z" fill="#1C1C1D"/>
<path d="M528.134 3.69336L469.29 62.5377L465.693 58.941L524.538 0.0966516L528.134 3.69336Z" fill="#1C1C1D"/>
<path d="M893.952 3.69434L835.107 62.5387L831.511 58.942L890.355 0.0976281L893.952 3.69434Z" fill="#1C1C1D"/>
<path d="M1126.74 3.69434L1067.9 62.5387L1064.3 58.942L1123.15 0.0976281L1126.74 3.69434Z" fill="#1C1C1D"/>
<path d="M694.415 3.69434L635.571 62.5387L631.974 58.942L690.819 0.0976281L694.415 3.69434Z" fill="#1C1C1D"/>
<path d="M494.878 3.69336L436.034 62.5377L432.437 58.941L491.281 0.0966516L494.878 3.69336Z" fill="#1C1C1D"/>
<path d="M328.598 3.69336L269.753 62.5377L266.156 58.941L325.001 0.0966516L328.598 3.69336Z" fill="#1C1C1D"/>
<path d="M162.317 3.69336L103.472 62.5377L99.8758 58.941L158.72 0.0966516L162.317 3.69336Z" fill="#1C1C1D"/>
<path d="M827.44 3.59766L768.595 62.442L764.998 58.8453L823.843 0.000948447L827.44 3.59766Z" fill="#1C1C1D"/>
<path d="M1060.23 3.59766L1001.39 62.442L997.79 58.8453L1056.63 0.000948447L1060.23 3.59766Z" fill="#1C1C1D"/>
<path d="M627.903 3.59766L569.058 62.442L565.462 58.8453L624.306 0.000948447L627.903 3.59766Z" fill="#1C1C1D"/>
<path d="M428.366 3.59766L369.522 62.442L365.925 58.8453L424.769 0.000948447L428.366 3.59766Z" fill="#1C1C1D"/>
<path d="M262.085 3.59668L203.241 62.4411L199.644 58.8443L258.489 -2.81159e-05L262.085 3.59668Z" fill="#1C1C1D"/>
<path d="M95.8048 3.59668L36.9604 62.4411L33.3637 58.8443L92.2081 -2.81159e-05L95.8048 3.59668Z" fill="#1C1C1D"/>
<path d="M794.183 3.59766L735.339 62.442L731.742 58.8453L790.587 0.000948447L794.183 3.59766Z" fill="#1C1C1D"/>
<path d="M1026.98 3.59766L968.131 62.442L964.535 58.8453L1023.38 0.000948447L1026.98 3.59766Z" fill="#1C1C1D"/>
<path d="M594.647 3.59766L535.802 62.442L532.206 58.8453L591.05 0.000948447L594.647 3.59766Z" fill="#1C1C1D"/>
<path d="M395.11 3.59766L336.266 62.442L332.669 58.8453L391.513 0.000948447L395.11 3.59766Z" fill="#1C1C1D"/>
<path d="M228.829 3.59668L169.985 62.4411L166.388 58.8443L225.232 -2.81159e-05L228.829 3.59668Z" fill="#1C1C1D"/>
<path d="M62.5487 3.59668L3.70436 62.4411L0.107655 58.8443L58.952 -2.81159e-05L62.5487 3.59668Z" fill="#1C1C1D"/>
<path d="M760.927 3.59766L702.083 62.442L698.486 58.8453L757.331 0.000948447L760.927 3.59766Z" fill="#1C1C1D"/>
<path d="M993.72 3.59766L934.875 62.442L931.279 58.8453L990.123 0.000948447L993.72 3.59766Z" fill="#1C1C1D"/>
<path d="M561.39 3.59766L502.546 62.442L498.949 58.8453L557.794 0.000948447L561.39 3.59766Z" fill="#1C1C1D"/>
<path d="M361.854 3.59766L303.009 62.442L299.412 58.8453L358.257 0.000948447L361.854 3.59766Z" fill="#1C1C1D"/>
<path d="M195.573 3.59668L136.729 62.4411L133.132 58.8443L191.977 -2.81159e-05L195.573 3.59668Z" fill="#1C1C1D"/>
<path d="M29.2925 3.59668L-29.5519 62.4411L-33.1486 58.8443L25.6958 -2.81159e-05L29.2925 3.59668Z" fill="#1C1C1D"/>
<rect x="860.696" y="3.59766" width="83.2185" height="5.08651" transform="rotate(135 860.696 3.59766)" fill="#1C1C1D"/>
<rect x="1093.49" y="3.59766" width="83.2185" height="5.08651" transform="rotate(135 1093.49 3.59766)" fill="#1C1C1D"/>
<rect x="661.159" y="3.59766" width="83.2185" height="5.08651" transform="rotate(135 661.159 3.59766)" fill="#1C1C1D"/>
<rect x="461.622" y="3.59766" width="83.2185" height="5.08651" transform="rotate(135 461.622 3.59766)" fill="#1C1C1D"/>
<rect x="295.341" y="3.59668" width="83.2185" height="5.08651" transform="rotate(135 295.341 3.59668)" fill="#1C1C1D"/>
<rect x="129.061" y="3.59668" width="83.2185" height="5.08651" transform="rotate(135 129.061 3.59668)" fill="#1C1C1D"/>
<path d="M1657.6 3.69336L1598.75 62.5377L1595.16 58.941L1654 0.0966516L1657.6 3.69336Z" fill="#1C1C1D"/>
<path d="M1491.32 3.69336L1432.47 62.5377L1428.88 58.941L1487.72 0.0966516L1491.32 3.69336Z" fill="#1C1C1D"/>
<path d="M1325.04 3.69238L1266.19 62.5368L1262.6 58.94L1321.44 0.095675L1325.04 3.69238Z" fill="#1C1C1D"/>
<path d="M1757.37 3.59766L1698.52 62.442L1694.93 58.8453L1753.77 0.000948447L1757.37 3.59766Z" fill="#1C1C1D"/>
<path d="M1591.09 3.59668L1532.24 62.4411L1528.64 58.8443L1587.49 -2.81159e-05L1591.09 3.59668Z" fill="#1C1C1D"/>
<path d="M1424.8 3.59668L1365.96 62.4411L1362.36 58.8443L1421.21 -2.81159e-05L1424.8 3.59668Z" fill="#1C1C1D"/>
<path d="M1258.52 3.59668L1199.68 62.4411L1196.08 58.8443L1254.93 -2.81159e-05L1258.52 3.59668Z" fill="#1C1C1D"/>
<path d="M1724.11 3.59766L1665.27 62.442L1661.67 58.8453L1720.51 0.000948447L1724.11 3.59766Z" fill="#1C1C1D"/>
<path d="M1557.83 3.59668L1498.98 62.4411L1495.39 58.8443L1554.23 -2.81159e-05L1557.83 3.59668Z" fill="#1C1C1D"/>
<path d="M1391.55 3.59668L1332.7 62.4411L1329.11 58.8443L1387.95 -2.81159e-05L1391.55 3.59668Z" fill="#1C1C1D"/>
<path d="M1225.27 3.59668L1166.42 62.4411L1162.83 58.8443L1221.67 -2.81159e-05L1225.27 3.59668Z" fill="#1C1C1D"/>
<path d="M1690.85 3.59766L1632.01 62.442L1628.41 58.8453L1687.26 0.000948447L1690.85 3.59766Z" fill="#1C1C1D"/>
<path d="M1524.57 3.59668L1465.73 62.4411L1462.13 58.8443L1520.98 -2.81159e-05L1524.57 3.59668Z" fill="#1C1C1D"/>
<path d="M1358.29 3.59668L1299.45 62.4411L1295.85 58.8443L1354.7 -2.81159e-05L1358.29 3.59668Z" fill="#1C1C1D"/>
<path d="M1191.44 3.59668L1132.6 62.4411L1129 58.8443L1187.84 -2.81159e-05L1191.44 3.59668Z" fill="#1C1C1D"/>
<rect x="1624.34" y="3.59668" width="83.2185" height="5.08651" transform="rotate(135 1624.34 3.59668)" fill="#1C1C1D"/>
<rect x="1458.06" y="3.59668" width="83.2185" height="5.08651" transform="rotate(135 1458.06 3.59668)" fill="#1C1C1D"/>
<rect x="1291.78" y="3.59668" width="83.2185" height="5.08651" transform="rotate(135 1291.78 3.59668)" fill="#1C1C1D"/>
</svg>
